<svg width="17" height="19" viewBox="0 0 17 19" fill="none" xmlns="http://www.w3.org/2000/svg">
<path d="M8.6126 5.07095C6.2718 5.07095 4.3837 7.02789 4.3837 9.45403C4.3837 11.8802 6.2718 13.8371 8.6126 13.8371C10.9534 13.8371 12.8415 11.8802 12.8415 9.45403C12.8415 7.02789 10.9534 5.07095 8.6126 5.07095ZM8.6126 12.3036C7.09991 12.3036 5.86326 11.0257 5.86326 9.45403C5.86326 7.88238 7.09623 6.60445 8.6126 6.60445C10.129 6.60445 11.3619 7.88238 11.3619 9.45403C11.3619 11.0257 10.1253 12.3036 8.6126 12.3036ZM14.0009 4.89165C14.0009 5.46004 13.5592 5.91399 13.0145 5.91399C12.4661 5.91399 12.0281 5.45623 12.0281 4.89165C12.0281 4.32708 12.4698 3.86932 13.0145 3.86932C13.5592 3.86932 14.0009 4.32708 14.0009 4.89165ZM16.8017 5.92925C16.7392 4.55978 16.4374 3.3467 15.4694 2.34725C14.5051 1.3478 13.3347 1.035 12.0134 0.966331C10.6516 0.886223 6.56992 0.886223 5.20813 0.966331C3.89051 1.03118 2.7201 1.34399 1.75213 2.34344C0.784155 3.34289 0.486034 4.55596 0.419784 5.92544C0.342494 7.33688 0.342494 11.5674 0.419784 12.9788C0.482353 14.3483 0.784155 15.5614 1.75213 16.5608C2.7201 17.5603 3.88683 17.8731 5.20813 17.9417C6.56992 18.0218 10.6516 18.0218 12.0134 17.9417C13.3347 17.8769 14.5051 17.5641 15.4694 16.5608C16.4337 15.5614 16.7355 14.3483 16.8017 12.9788C16.879 11.5674 16.879 7.34069 16.8017 5.92925ZM15.0425 14.4932C14.7554 15.2409 14.1996 15.8169 13.4746 16.1183C12.3888 16.5646 9.81245 16.4616 8.6126 16.4616C7.41276 16.4616 4.83272 16.5608 3.75065 16.1183C3.02927 15.8208 2.47351 15.2447 2.18275 14.4932C1.75213 13.3679 1.8515 10.6976 1.8515 9.45403C1.8515 8.21044 1.75581 5.53634 2.18275 4.41482C2.46983 3.66714 3.02559 3.09112 3.75065 2.78976C4.8364 2.34344 7.41276 2.44643 8.6126 2.44643C9.81245 2.44643 12.3925 2.34725 13.4746 2.78976C14.1959 3.0873 14.7517 3.66332 15.0425 4.41482C15.4731 5.54015 15.3737 8.21044 15.3737 9.45403C15.3737 10.6976 15.4731 13.3717 15.0425 14.4932Z" fill="#0A449C"/>
</svg>
