<svg width="17" height="18" viewBox="0 0 17 18" fill="none" xmlns="http://www.w3.org/2000/svg">
<path d="M3.85665 17.4332H0.43819V6.02345H3.85665V17.4332ZM2.14558 4.46706C1.05247 4.46706 0.165833 3.52864 0.165833 2.39568C0.165833 1.85147 0.374412 1.32956 0.745687 0.944745C1.11696 0.559934 1.62052 0.34375 2.14558 0.34375C2.67064 0.34375 3.1742 0.559934 3.54547 0.944745C3.91675 1.32956 4.12533 1.85147 4.12533 2.39568C4.12533 3.52864 3.23832 4.46706 2.14558 4.46706ZM16.6508 17.4332H13.2397V11.879C13.2397 10.5553 13.214 8.85777 11.4624 8.85777C9.68511 8.85777 9.41275 10.2959 9.41275 11.7836V17.4332H5.99797V6.02345H9.27657V7.57985H9.32442C9.7808 6.6834 10.8956 5.73735 12.5589 5.73735C16.0185 5.73735 16.6545 8.09865 16.6545 11.1657V17.4332H16.6508Z" fill="#0A449C"/>
</svg>
