<svg width="20" height="17" viewBox="0 0 20 17" fill="none" xmlns="http://www.w3.org/2000/svg">
<path d="M17.465 4.42207C17.4769 4.59557 17.4769 4.7691 17.4769 4.94259C17.4769 10.2343 13.5909 16.3317 6.48847 16.3317C4.30033 16.3317 2.26766 15.6748 0.5578 14.5347C0.868693 14.5719 1.16759 14.5843 1.49044 14.5843C3.29592 14.5843 4.95796 13.9523 6.28519 12.8741C4.5873 12.8369 3.16441 11.6843 2.67417 10.098C2.91333 10.1352 3.15245 10.16 3.40357 10.16C3.75031 10.16 4.09709 10.1104 4.41991 10.0237C2.65028 9.65187 1.32302 8.04081 1.32302 6.09512V6.04557C1.83715 6.343 2.43505 6.52889 3.06872 6.55365C2.02846 5.83485 1.34694 4.60796 1.34694 3.21995C1.34694 2.47639 1.53822 1.79478 1.87303 1.19991C3.7742 3.62892 6.63193 5.21519 9.83637 5.38872C9.7766 5.09129 9.74072 4.78149 9.74072 4.47166C9.74072 2.2657 11.4625 0.46875 13.6028 0.46875C14.7148 0.46875 15.7192 0.952072 16.4247 1.73283C17.2975 1.55933 18.1345 1.22471 18.8759 0.766182C18.5889 1.69567 17.9791 2.47642 17.178 2.97211C17.9552 2.8854 18.7085 2.66228 19.4019 2.35249C18.8759 3.1456 18.2183 3.85197 17.465 4.42207Z" fill="#0A449C"/>
</svg>
